<?xml version="1.0" standalone="no"?>
<!DOCTYPE svg PUBLIC "-//W3C//DTD SVG 20010904//EN"
 "http://www.w3.org/TR/2001/REC-SVG-20010904/DTD/svg10.dtd">
<svg version="1.0" xmlns="http://www.w3.org/2000/svg"
 width="772.000000pt" height="323.000000pt" viewBox="0 0 772.000000 323.000000"
 preserveAspectRatio="xMidYMid meet">

<g transform="translate(0.000000,323.000000) scale(0.100000,-0.100000)"
fill="#000000" stroke="none">
<path d="M764 1762 c-62 -22 -101 -51 -136 -104 -35 -52 -48 -98 -48 -173 1
-123 54 -183 217 -241 117 -42 153 -68 153 -114 0 -97 -148 -109 -273 -23 -20
14 -39 24 -41 22 -2 -2 -24 -43 -50 -91 l-47 -87 43 -25 c137 -80 331 -95 451
-35 100 50 157 144 157 258 0 141 -67 215 -249 276 -94 31 -121 52 -121 94 0
69 92 91 188 46 30 -14 57 -23 61 -21 12 8 85 165 79 171 -3 4 -39 18 -79 32
-99 35 -232 41 -305 15z"/>
<path d="M1350 1570 l0 -90 -35 0 -35 0 0 -90 0 -90 35 0 35 0 0 -210 0 -210
105 0 105 0 0 210 0 210 60 0 60 0 0 90 0 90 -60 0 -60 0 0 90 0 90 -105 0
-105 0 0 -90z"/>
<path d="M2549 1490 c-64 -11 -139 -52 -181 -98 -48 -53 -72 -128 -72 -222 1
-167 107 -285 276 -309 65 -9 163 0 214 19 63 24 130 96 149 158 6 22 5 22
-90 22 -88 0 -99 -2 -131 -26 -37 -29 -112 -36 -152 -15 -27 14 -52 61 -52 96
l0 25 220 0 220 0 0 44 c0 63 -32 158 -69 205 -63 79 -208 123 -332 101z m173
-169 c50 -56 42 -61 -87 -61 -98 0 -115 2 -115 16 0 51 54 86 124 80 41 -3 55
-9 78 -35z"/>
<path d="M2106 1480 c-36 -11 -103 -57 -110 -76 -11 -30 -26 -12 -26 31 l0 46
-102 -3 -103 -3 -3 -297 -2 -298 105 0 105 0 0 118 c0 173 12 230 55 270 39
36 72 42 150 28 l35 -7 0 101 0 100 -37 -1 c-21 0 -51 -5 -67 -9z"/>
<path d="M3225 1466 c-66 -30 -127 -98 -155 -172 -18 -48 -21 -73 -18 -134 10
-170 119 -288 275 -298 68 -5 115 7 168 43 l35 24 0 -24 0 -25 110 0 110 0 -2
298 -3 297 -105 0 -105 0 -5 -29 c-5 -27 -6 -28 -20 -11 -47 57 -195 74 -285
31z m253 -176 c84 -51 79 -185 -9 -232 -90 -48 -199 15 -199 115 0 108 116
173 208 117z"/>
<path d="M4253 1479 c-44 -8 -117 -42 -128 -59 -13 -21 -25 -9 -25 25 l0 36
-102 -3 -103 -3 -3 -297 -2 -298 104 0 104 0 4 183 c4 233 15 257 107 257 26
0 44 -7 57 -21 17 -19 19 -41 22 -220 l3 -199 110 0 109 0 0 180 c0 142 3 187
15 210 17 34 43 50 79 50 77 0 89 -32 94 -257 l4 -183 104 0 104 0 0 200 c0
109 -5 222 -11 249 -22 104 -86 155 -193 154 -74 0 -121 -19 -170 -67 l-36
-37 -25 30 c-47 56 -140 85 -222 70z"/>
<path d="M4960 1475 c0 -3 63 -117 140 -254 77 -137 140 -255 140 -262 0 -7
-43 -93 -95 -190 -52 -97 -95 -180 -95 -183 0 -4 52 -5 117 -4 l116 3 57 105
c173 319 420 782 420 785 0 3 -54 5 -120 5 l-120 0 -75 -150 c-41 -82 -78
-150 -83 -150 -4 0 -41 67 -83 148 l-75 147 -122 3 c-67 1 -122 0 -122 -3z"/>
</g>
</svg>
